<svg width="66" height="66" viewBox="0 0 66 66" fill="none" xmlns="http://www.w3.org/2000/svg">
<path d="M8 65.1432H58C61.9449 65.1432 65.1429 61.9452 65.1429 58.0003V8.00034C65.1429 4.05545 61.9449 0.857483 58 0.857483H8C4.05511 0.857483 0.857143 4.05545 0.857143 8.00034V58.0003C0.857143 61.9452 4.05511 65.1432 8 65.1432ZM8 65.1432L47.2857 25.8575L65.1429 43.7146M25.8571 20.5003C25.8571 23.459 23.4587 25.8575 20.5 25.8575C17.5413 25.8575 15.1429 23.459 15.1429 20.5003C15.1429 17.5417 17.5413 15.1432 20.5 15.1432C23.4587 15.1432 25.8571 17.5417 25.8571 20.5003Z" stroke="#999999" stroke-linecap="round" stroke-linejoin="round"/>
</svg>
